<?xml version="1.0" encoding="UTF-8"?>
<svg id="Layer_2" data-name="Layer 2" xmlns="http://www.w3.org/2000/svg" viewBox="0 0 131.11 78.83">
  <defs>
    <style>
      .cls-1 {
        fill: #fccb3c;
        fill-rule: evenodd;
        stroke-width: 0px;
      }
    </style>
  </defs>
  <g id="Layer_1-2" data-name="Layer 1">
    <path class="cls-1" d="M84.63,8.51c.18.11.27.3.27.49l-.08.29c-1.3,2.19-2.46,4.7-3.44,7.48-.08.22-.28.37-.51.38-.03,0-.07,0-.1-.01-4.07-.98-8.38-1.55-12.82-1.7-.31,0-.56-.27-.56-.58V3.73c0-.16.07-.31.18-.42.1-.09.23-.15.36-.15h0c5.9.39,11.67,2.24,16.69,5.36h0ZM46.48,8.51c-.18.11-.27.3-.27.49l.08.29c1.3,2.19,2.46,4.7,3.44,7.48.08.22.28.37.51.38.03,0,.07,0,.1-.01,4.07-.98,8.38-1.55,12.82-1.7.31,0,.56-.27.56-.58V3.73c0-.16-.07-.31-.18-.42-.1-.09-.23-.15-.36-.15h0c-5.9.39-11.67,2.24-16.69,5.36h0ZM42.53,11.33c.1-.08.21-.12.33-.13.02,0,.05,0,.07,0,.17.03.31.13.4.28,1.07,1.85,2.03,3.93,2.85,6.2l.03.2-.06.25c-.07.14-.19.25-.34.3-4.93,1.65-9.13,3.87-12.47,6.58-.1.08-.21.12-.33.13-.11,0-.22-.05-.32-.12-.14-.11-.22-.28-.22-.46l.05-.24c2.29-5.01,5.75-9.5,10-12.99h0ZM29.53,36.9v.13c-.01.13.03.26.11.36.11.13.27.21.44.22h18.97c.15,0,.3-.06.41-.18.11-.11.16-.25.16-.4v-.02c-.16-5.14-.84-10.07-2.01-14.63-.04-.16-.14-.29-.28-.36-.07-.04-.16-.06-.24-.07-.05,0-.11.01-.16.03-9.51,3.26-16.02,8.84-17.4,14.92h0ZM63.17,19.06c-4.01.16-7.92.69-11.62,1.59-.15.04-.28.13-.36.26l-.08.3.02.14c1.28,4.92,2.02,10.21,2.18,15.7,0,.31.26.56.58.56h9.26c.32,0,.58-.26.58-.58v-17.4c0-.16-.06-.31-.18-.42-.1-.1-.23-.15-.36-.16h0ZM67.94,19.06c-.14,0-.26.06-.36.16-.11.11-.18.26-.18.42v17.4c0,.32.26.58.58.58h9.26c.31,0,.57-.25.58-.56.16-5.49.9-10.77,2.18-15.7l.02-.14-.08-.3c-.08-.13-.21-.23-.36-.26-3.71-.9-7.62-1.43-11.62-1.59h0ZM84.02,21.95c-.08,0-.16.03-.24.07-.14.08-.24.21-.28.36-1.17,4.56-1.85,9.48-2.01,14.63v.02c0,.15.06.29.16.4.11.11.25.17.41.18h18.97c.17,0,.33-.08.44-.22.08-.1.13-.23.13-.36v-.13c-1.4-6.08-7.9-11.66-17.42-14.92-.05-.02-.1-.03-.16-.03h0ZM88.25,11.2s-.05,0-.07,0c-.17.03-.31.13-.4.28-1.07,1.85-2.03,3.93-2.85,6.2l-.03.2.06.25c.07.14.19.25.34.3,4.93,1.65,9.13,3.87,12.47,6.58.1.08.21.12.33.13.11,0,.22-.05.32-.12.14-.11.22-.28.22-.46l-.05-.24c-2.29-5.01-5.75-9.5-10-12.99-.1-.08-.21-.12-.33-.13h0ZM82.06,41.22c-.15,0-.3.07-.41.18-.11.11-.16.25-.16.4v.02c.16,5.14.84,10.06,2.01,14.63.04.16.14.29.28.36.08.04.16.06.24.07.05,0,.1-.01.15-.03,9.51-3.26,16.02-8.84,17.4-14.92v-.13c.01-.13-.03-.26-.11-.36-.11-.13-.27-.21-.44-.22h-18.97ZM67.97,41.22c-.32,0-.58.26-.58.58v17.4c0,.16.06.31.18.42.1.1.23.15.36.16h0c4.01-.15,7.92-.69,11.63-1.59.15-.04.28-.13.36-.26l.08-.3-.02-.14c-1.28-4.93-2.02-10.21-2.18-15.7,0-.31-.26-.56-.58-.56h-9.26ZM53.88,41.22c-.31,0-.57.25-.58.56-.17,5.49-.9,10.77-2.18,15.7l-.02.14.08.3c.08.13.21.23.36.26,3.71.9,7.62,1.43,11.63,1.59h0c.14,0,.26-.07.36-.16.11-.11.18-.26.18-.42v-17.4c0-.32-.26-.58-.58-.58h-9.26ZM30.09,41.22c-.17,0-.33.08-.44.22-.08.1-.13.23-.13.36v.13c1.4,6.08,7.9,11.66,17.41,14.92.05.02.1.03.15.03.08,0,.17-.03.24-.07.14-.08.24-.21.28-.36,1.17-4.57,1.85-9.49,2.01-14.63v-.02c0-.15-.06-.29-.16-.4-.11-.11-.25-.17-.41-.18h-18.97ZM32.7,53.8c.09-.07.21-.11.32-.12.12,0,.23.05.33.13,3.34,2.72,7.53,4.93,12.47,6.58.15.05.27.16.34.3l.06.25-.04.2c-.83,2.28-1.78,4.37-2.84,6.2-.08.15-.23.25-.4.28-.02,0-.04,0-.07,0-.12,0-.24-.05-.34-.13-4.25-3.5-7.71-7.99-10-13l-.05-.24c0-.17.08-.35.22-.46h0ZM46.21,69.83c0,.19.1.38.27.49,5.02,3.11,10.79,4.97,16.69,5.36.14,0,.27-.06.37-.16.12-.11.18-.26.18-.42v-11.13c0-.31-.25-.57-.56-.58-4.44-.15-8.75-.72-12.82-1.7-.03,0-.07-.01-.1-.01-.23.01-.43.16-.51.38-.98,2.78-2.14,5.3-3.44,7.48l-.08.29h0ZM80.88,61.67s-.07,0-.1.01c-4.07.98-8.38,1.55-12.82,1.7-.31.01-.56.27-.56.58v11.13c0,.16.07.31.18.42.1.09.23.15.37.16,5.9-.39,11.67-2.24,16.69-5.36.18-.11.27-.3.27-.49l-.08-.29c-1.3-2.19-2.45-4.7-3.44-7.48-.08-.22-.28-.37-.51-.38h0ZM98.09,53.68c.11,0,.23.05.32.12.15.11.22.28.22.46l-.05.24c-2.29,5.01-5.75,9.5-10,13-.1.08-.21.12-.34.13-.02,0-.05,0-.07,0-.17-.03-.31-.13-.4-.28-1.06-1.83-2.02-3.92-2.84-6.2l-.04-.2.06-.25c.07-.14.19-.25.34-.3,4.93-1.65,9.12-3.87,12.47-6.58.1-.08.21-.12.33-.13h0ZM85.7,73.44c21.35-9.27,45.41-27.85,45.41-34.03,0-5.63-23.58-24.12-44.76-33.64-5.98-3.66-13.02-5.77-20.55-5.77-.08,0-.17,0-.25,0-.08,0-.17,0-.25,0-7.53,0-14.56,2.11-20.55,5.77C23.58,15.29,0,33.78,0,39.41c0,6.18,24.07,24.76,45.41,34.03,5.84,3.42,12.64,5.38,19.89,5.38.08,0,.17,0,.25,0,.08,0,.17,0,.25,0,7.26,0,14.05-1.96,19.89-5.38Z"/>
  </g>
</svg>